<?xml version="1.0" encoding="UTF-8" standalone="no"?>
<svg
   xmlns:dc="http://purl.org/dc/elements/1.1/"
   xmlns:cc="http://creativecommons.org/ns#"
   xmlns:rdf="http://www.w3.org/1999/02/22-rdf-syntax-ns#"
   xmlns:svg="http://www.w3.org/2000/svg"
   xmlns="http://www.w3.org/2000/svg"
   xmlns:sodipodi="http://sodipodi.sourceforge.net/DTD/sodipodi-0.dtd"
   xmlns:inkscape="http://www.inkscape.org/namespaces/inkscape"
   sodipodi:docname="icon.svg"
   inkscape:version="1.0 (4035a4fb49, 2020-05-01)"
   id="svg8"
   version="1.1"
   viewBox="0 0 135.46666 135.46667"
   height="512"
   width="512">
  <defs
     id="defs2" />
  <sodipodi:namedview
     inkscape:window-maximized="1"
     inkscape:window-y="-9"
     inkscape:window-x="-9"
     inkscape:window-height="1013"
     inkscape:window-width="1920"
     units="px"
     showgrid="false"
     inkscape:document-rotation="0"
     inkscape:current-layer="layer2"
     inkscape:document-units="mm"
     inkscape:cy="310.09011"
     inkscape:cx="322.02961"
     inkscape:zoom="0.89350976"
     inkscape:pageshadow="2"
     inkscape:pageopacity="0.0"
     borderopacity="1.0"
     bordercolor="#666666"
     pagecolor="#ffffff"
     id="base" />
  <metadata
     id="metadata5">
    <rdf:RDF>
      <cc:Work
         rdf:about="">
        <dc:format>image/svg+xml</dc:format>
        <dc:type
           rdf:resource="http://purl.org/dc/dcmitype/StillImage" />
        <dc:title></dc:title>
      </cc:Work>
    </rdf:RDF>
  </metadata>
  <g
     style="display:inline"
     id="layer1"
     inkscape:groupmode="layer"
     inkscape:label="Layer 1" />
  <g
     inkscape:label="Layer 2"
     id="layer2"
     inkscape:groupmode="layer">
    <g
       transform="matrix(6.3813023,0,0,6.3813023,-597.59541,-574.41344)"
       id="g328">
      <g
         style="display:inline;color-interpolation:linearRGB"
         id="g72"
         transform="matrix(0.26458333,0,0,0.26458333,95.590934,94.002786)">
        <g
           id="g44">
          <path
             id="path10"
             d="m 59.84,27.56 -1.3,2.29 -0.46,1.39 c 0.23,1.11 -0.12,1.76 -0.12,2.37 0,0.77 -0.24,1.39 -0.82,2.39 -1.03,1.81 -8.24,9.19 -10.93,11.89 L 32.57,61.19 C 30.51,63.4 28.13,63.76 26.71,63.4 25.9,63.2 25.32,62.76 25.17,62.21 25,61.58 23.66,60.49 24.5,59.67 22.93,61.59 20.44,61.9 18.76,61.59 17.38,61.34 14.73,59.8 14.47,59 14.42,58.86 14.38,58.5 14.38,58.5 11.64,60.87 8.38,60.36 7.19,59.07 6.86,58.72 5.44,57.91 5.44,57.5 5.44,56.98 7.55,54.38 7.55,54.38 6.52,55.41 24.2,31.19 24.2,31.19 l 1.07,-2.97 c 0,-2.05 -2.18,-2.22 -3.23,-2.29 l -9.31,2.18 c -0.82,0 -1.44,-0.21 -1.84,-0.64 -0.44,-0.47 -0.53,-1.09 -0.53,-1.52 0,-1.57 1.14,-3.32 2.69,-3.32 l 32.07,-2.95 0.07,-0.06 c 0.06,-0.06 1.38,-1.22 3.7,-0.73 6.11,1.28 9.8,2.99 10.98,5.05 0.3,0.54 0.41,1.06 0.41,1.56 0,0.75 -0.24,1.45 -0.44,2.06 z"
             style="fill:#000000;fill-opacity:0.298" />
          <path
             id="path12"
             d="m 47.35,15.29 c -2.72,-0.58 -4.29,0.89 -4.29,0.89 l -3.25,1.63 c 0,0 -1.58,-1.03 -2.92,-0.97 H 11.88 c -3.58,0 -5.2,6.81 -0.33,6.81 h 8.77 c 1.34,0.11 2.6,0.33 2.6,1.63 l -0.97,2.6 -20.14,19.49 c -3.57,3.58 2.11,6.98 4.54,4.55 l 0.06,0.01 -1.03,0.96 c -3.57,3.58 2.93,7.36 7.8,3.13 l 0.84,-0.87 c -2.26,3.94 5.88,6.23 9.27,2.06 l 0.7,-0.68 0.06,0.02 c -4.13,4.04 2.77,7.06 7.32,2.19 L 45,45.42 c 0,0 9.75,-9.75 11.05,-12.02 1.3,-2.28 0.97,-2.92 0.33,-6.17 l 2.27,-1.95 c 0.69,-2.23 3.32,-6.91 -11.3,-9.99 z"
             style="fill:#ffcb9a" />
          <path
             id="path14"
             d="m 39.69,18.48 c 0.56,0.1 3.67,1.53 3.67,2.9 v 0.75 l 0.74,-0.08 c 3.84,-0.4 9.9,0.9 9.9,4.29 L 53.58,23.59 54.5,23.57 C 52.88,21.06 48.08,21 44.21,21.18 43.52,19.02 40.29,17.21 39.93,17.14 Z"
             style="fill:#cd9866;fill-opacity:0.698" />
          <path
             id="path16"
             d="m 10.56,22.28 13.08,-0.71 c 2.36,3.7 3.71,4.71 8.75,3.03 4.16,-1.39 7.07,-1.68 7.07,-1.68 0,0 -3.37,3.03 -6.4,4.37 -3.03,1.34 -6.72,1.69 -11.77,2.02 0.28,-2.34 2.99,-5.12 1.01,-5.38 -6.16,-0.84 -10.75,-0.28 -10.75,-0.28 z"
             style="fill:#cd9966;fill-opacity:0.698" />
          <path
             id="path18"
             d="m 32.05,42.09 c 0,0 2.02,1.35 1.35,2.36 -0.67,1.01 -5.39,3.69 -5.72,5.04 -2.02,1.35 -4.04,4.03 -4.7,5.38 -0.68,1.35 -4.38,2.02 -5.72,2.02 -1.35,0 -1.69,2.35 -0.34,2.35 1.34,0 4.67,-0.36 6.37,-2.03 L 35.08,45.46 c 0,0 1.68,-1.69 2.69,-1.01 -1.68,-0.68 -5.72,-2.36 -5.72,-2.36 z"
             style="fill:#cd9966;fill-opacity:0.698" />
          <path
             id="path20"
             d="m 21.97,40.07 c 0,0 2.02,1.35 1.34,2.36 -0.67,1.01 -5.38,3.69 -5.72,5.05 -2.02,1.34 -4.04,4.02 -4.7,5.37 -0.68,1.35 -4.38,2.02 -5.73,2.02 -1.34,0 -1.57,1.82 -0.33,2.35 2.01,0.88 4.67,-0.36 6.37,-2.03 L 25,43.44 c 0,0 1.67,-1.69 2.68,-1.01 C 26,41.75 21.97,40.07 21.97,40.07 Z"
             style="fill:#cd9966;fill-opacity:0.698" />
          <path
             id="path22"
             d="m 17.59,35.02 c 0,0 2.02,1.35 1.35,2.36 -0.67,1.01 -5.39,3.7 -5.72,5.05 -2.02,1.34 -4.04,4.04 -4.71,5.38 -0.67,1.34 -3.26,3.2 -5.72,2.02 -1.21,-0.59 -1.68,2.35 -0.33,2.35 1.34,0 4.66,-0.36 6.37,-2.03 L 20.62,38.39 c 0,0 1.68,-1.68 2.69,-1.01 -1.68,-0.67 -5.72,-2.36 -5.72,-2.36 z"
             style="fill:#cd9966;fill-opacity:0.698" />
          <path
             id="path24"
             d="m 24.32,30.32 c 2.35,0.33 7.4,2.35 8.74,3.36 1.35,1.01 6.73,1.01 7.41,3.03 C 38.45,35.37 36.13,36.26 33.74,35.37 31.04,34.36 28.69,33.68 27.35,33 26,32.34 24.32,30.32 24.32,30.32 Z"
             style="fill:#cd9966;fill-opacity:0.698" />
          <path
             id="path26"
             d="m 26.34,28.98 c 3.03,0 12.11,-0.68 14.13,-2.37 -3.03,3.03 -10.44,4.72 -14.13,2.37 z"
             style="fill:#cd9966;fill-opacity:0.698" />
          <path
             id="path28"
             d="m 33.06,37.04 c 3.03,0.68 5.39,0.34 6.4,1.01 1.01,0.68 1.34,2.36 1.34,2.36 -2.02,-1.01 -6.73,-3.03 -7.74,-3.37 z"
             style="fill:#cd9866;fill-opacity:0.698" />
          <path
             id="path30"
             d="m 2.48,49.34 c 1.09,-0.55 3.27,-2.41 3.82,-3.5 0.55,-1.1 1.1,-1.92 2.47,-2.75 1.36,-0.81 4.93,-3.56 5.47,-4.65 0.55,-1.09 2.47,-3.01 2.47,-3.01 l 1.62,-0.81 1.88,-4.26 -17.47,16.58 c 0,0 -0.8,1.57 -0.26,2.4 z"
             style="fill:#ffffff;fill-opacity:0.949" />
          <path
             id="path32"
             d="m 6.77,54.28 c 1.09,-0.55 3.26,-2.41 3.81,-3.51 0.55,-1.09 1.1,-1.91 2.47,-2.74 1.38,-0.82 4.94,-3.55 5.48,-4.65 0.55,-1.1 2.47,-3.02 2.47,-3.02 l 2.48,-0.46 -1.94,-2 -14.52,13.97 c 0,0 -0.8,1.59 -0.25,2.41 z"
             style="fill:#ffffff;fill-opacity:0.949" />
          <path
             id="path34"
             d="m 15.31,56.66 c 1.1,-0.55 3.27,-2.41 3.82,-3.5 0.54,-1.1 1.09,-1.92 2.46,-2.74 1.03,-0.62 3.29,-2.31 4.59,-3.58 0.43,-0.42 -0.68,0 -0.68,0 l -3.98,3 -1.39,-0.04 -4.57,4.46 c 0,-0.01 -1.47,1.29 -0.25,2.4 z"
             style="fill:#ffffff;fill-opacity:0.949" />
          <path
             id="path36"
             d="m 24.6,58.93 c 1.1,-0.55 3.28,-2.42 3.83,-3.51 0.55,-1.09 1.09,-1.92 2.46,-2.74 0.91,-0.55 2.78,-1.93 4.1,-3.13 0.66,-0.6 -2.67,-0.3 -2.67,-0.3 l -7.46,7.26 c 0.01,0 -2.64,1.92 -0.26,2.42 z"
             style="fill:#ffffff;fill-opacity:0.949" />
          <path
             id="path38"
             d="m 59.96,22.56 c 0,-0.7 -0.16,-1.45 -0.6,-2.23 -1.39,-2.44 -5.28,-4.31 -11.87,-5.7 -2.78,-0.59 -4.47,0.71 -4.79,0.98 -0.09,0.05 -2.34,1.18 -2.86,1.43 -0.59,-0.32 -1.83,-0.93 -2.98,-0.88 H 11.88 c -2.38,0 -4.05,2.45 -4.05,4.66 0,0.97 0.31,1.81 0.9,2.44 0.45,0.49 1.31,1.07 2.82,1.07 h 8.77 c 1.53,0.12 1.87,0.39 1.91,0.87 -0.1,0.27 -0.77,2.06 -0.86,2.3 C 21.15,27.71 1.34,46.89 1.34,46.89 0.36,47.86 0,48.84 0,49.71 c 0,0.95 0.43,1.79 1.01,2.36 0.8,0.8 1.99,1.29 3.15,1.32 -0.72,1.25 -0.62,2.61 0.36,3.66 1.72,1.85 5.42,2.16 8.48,-0.06 0.03,0.12 0.06,0.25 0.09,0.36 0.44,1.29 1.84,2.27 3.75,2.63 1.5,0.27 3.55,0.12 5.28,-0.9 0,0.21 0.04,0.4 0.08,0.54 0.28,1.04 1.2,1.82 2.5,2.15 1.79,0.44 4.73,0.03 7.16,-2.57 -0.02,0.02 13.62,-13.3 13.62,-13.3 0.4,-0.4 9.83,-9.84 11.15,-12.17 0.73,-1.25 0.98,-2.11 0.98,-3.06 0,-0.75 -0.16,-1.58 -0.4,-2.7 l 2.02,-2.3 c 0,0 0.73,-2.15 0.73,-3.11 z m -1.8,2.06 -2.52,2.36 0.26,1.26 c 0.22,1.11 0.38,1.82 0.38,2.44 0,0.77 -0.24,1.37 -0.81,2.38 -1.03,1.81 -8.25,9.19 -10.94,11.89 L 30.9,58.26 c -2.06,2.2 -4.44,2.56 -5.87,2.21 -0.82,-0.21 -1.39,-0.65 -1.53,-1.2 -0.18,-0.63 0.19,-1.42 1.02,-2.24 L 24.48,56.99 C 27.11,54.43 36.77,45.01 36.77,45.01 l -2.49,-0.46 0.52,0.51 -11.98,11.67 c -1.57,1.92 -4.06,2.23 -5.74,1.92 -1.38,-0.25 -2.44,-0.93 -2.7,-1.73 -0.05,-0.14 -0.08,-0.29 -0.08,-0.43 0,-0.33 0.12,-0.64 0.27,-0.94 0.72,-0.76 1.59,-1.67 1.59,-1.67 l -0.05,-0.06 c 2.36,-2.3 8.47,-8.23 10.03,-9.75 0.24,-0.22 1.48,-0.78 1.48,-0.78 l -2.63,-1.13 0.2,0.96 -10.99,10.69 c -0.29,0.31 -0.51,0.61 -0.69,0.9 L 12.7,55.56 C 9.97,57.94 6.7,57.42 5.51,56.14 5.18,55.79 5.02,55.4 5.02,55 5.02,54.48 5.3,53.92 5.86,53.37 L 21.43,38.76 20.08,36.89 19.71,38.77 5.92,51.49 5.88,51.45 C 4.85,52.47 2.97,52.12 1.97,51.13 1.02,50.18 1.14,48.99 2.28,47.85 l 20.24,-19.59 1.07,-2.98 c 0,-2.05 -2.17,-2.22 -3.22,-2.29 h -8.82 c -0.82,0 -1.44,-0.22 -1.84,-0.65 -0.44,-0.47 -0.53,-1.09 -0.53,-1.52 0,-1.57 1.15,-3.32 2.7,-3.32 h 25.01 c 0.95,-0.03 2.16,0.62 2.56,0.88 l 0.32,0.2 3.68,-1.84 0.06,-0.06 c 0.06,-0.05 1.39,-1.22 3.7,-0.73 6.11,1.28 9.8,2.99 10.98,5.05 0.31,0.53 0.41,1.06 0.41,1.56 0,0.76 -0.23,1.45 -0.44,2.06 z"
             style="fill:#000000" />
          <path
             id="path40"
             d="m 40.35,25.6 c 1.17,-1.04 1.63,-2.8 3.39,-3.1 1.77,-0.3 6.65,-0.74 8.72,1.33 -1.63,0 -4.73,2.07 -4.88,3.39 -0.14,1.33 -0.89,1.04 -1.48,0.6 -0.59,-0.44 -1.03,-1.78 -1.03,-2.51 0,-0.75 1.03,-1.78 2.07,-1.92 -2.66,0.29 -5.17,0 -6.79,2.21 z"
             style="fill:#ffffff;fill-opacity:0.698" />
          <path
             id="path42"
             d="m 56.38,27.23 c 2.27,-1.95 4.94,-6.67 -0.44,-8.69 1.01,2.02 -1.01,5.05 -2.36,5.05 0,1.35 1.35,4.71 -2.35,9.08 -0.78,0.93 -10.66,10.48 -10.66,10.48 l -3.61,6.34 c -2.15,2.29 -4.56,4.71 -4.56,4.71 0,0 -4.38,5.04 -5.73,5.04 -1.34,0 -3.02,1.69 -1.34,1.69 1.68,0 4.7,-1.01 10.43,-6.73 5.72,-5.72 20.85,-19.51 21.19,-23.55 0.33,-4.04 -0.57,-3.42 -0.57,-3.42 z"
             style="fill:#cd9866;fill-opacity:0.698" />
        </g>
      </g>
      <g
         style="color-interpolation:linearRGB"
         id="g166"
         transform="matrix(0.26458333,0,0,0.26458333,96.024853,90.449429)">
        <g
           id="g126">
          <path
             id="path74"
             d="m 28,64 c 0,0 5,0 10,0 5,0 10.2,-3.04 14.75,-2.88 10.37,0.38 14.5,-4.75 8.12,-6.75 C 57.04,53.17 52,53.25 49.12,51.25 45.45,48.69 38,48 38,48 v 7 z"
             style="fill:#010101;fill-opacity:0.4235" />
          <path
             id="path76"
             d="m 12,18 v 17 l 4,4 v 17 l 4,2 h 2 l 1,1.5 5,2.5 8,-8 V 43 l 4,-4 V 21 L 21,12 Z"
             style="fill:none;stroke:#000000;stroke-width:4" />
          <linearGradient
             y2="-8.0500002"
             x2="116.61"
             y1="-57.07"
             x1="73.739998"
             gradientUnits="userSpaceOnUse"
             id="gradient0">
            <stop
               id="stop78"
               stop-color="#ffdb97"
               offset="0" />
            <stop
               id="stop80"
               stop-color="#fcaf29"
               offset="1" />
          </linearGradient>
          <path
             id="path83"
             d="m 12,18 v 17 l 4,4 v 17 l 4,2 h 2 l 1,1.5 5,2.5 V 45 h 4 V 27 Z"
             style="fill:url(#gradient0)" />
          <linearGradient
             y2="-51.950001"
             x2="-24.83"
             y1="-33.98"
             x1="-43.970001"
             gradientUnits="userSpaceOnUse"
             id="gradient1">
            <stop
               id="stop85"
               stop-color="#fff7ea"
               offset="0" />
            <stop
               id="stop87"
               stop-color="#fdd17b"
               offset="0.9962" />
          </linearGradient>
          <path
             id="path90"
             d="M 12,18 32,27 40,21 26,20 31.99,16.99 21,12 Z"
             style="fill:url(#gradient1)" />
          <linearGradient
             y2="-45.970001"
             x2="75.839996"
             y1="-52.610001"
             x1="54.23"
             gradientUnits="userSpaceOnUse"
             id="gradient2">
            <stop
               id="stop92"
               stop-color="#c85805"
               offset="0" />
            <stop
               id="stop94"
               stop-color="#f06306"
               offset="1" />
          </linearGradient>
          <path
             id="path97"
             d="m 32,45 h -4 v 17 l 8,-8 V 43 l 4,-4 V 21 l -8,6 z"
             style="fill:url(#gradient2)" />
          <path
             id="path99"
             d="m 28,45 v 6 l 8,-8 -4,2 z"
             style="fill:#a32904" />
          <linearGradient
             y2="-64"
             x2="39.07"
             y1="-64"
             x1="28.92"
             gradientUnits="userSpaceOnUse"
             id="gradient3">
            <stop
               id="stop101"
               stop-color="#c85804"
               offset="0" />
            <stop
               id="stop103"
               stop-color="#dc952f"
               offset="1" />
          </linearGradient>
          <path
             id="path106"
             d="m 26,20 14,1 -8,-4 z"
             style="fill:url(#gradient3)" />
          <path
             id="path108"
             d="m 26,2 c -4,0 -8,4 -8,8 0,4 4,8 8,8 4,0 8,-4 8,-8 0,-4 -4,-8 -8,-8 z"
             style="fill:none;stroke:#000000;stroke-width:4" />
          <radialGradient
             gradientTransform="matrix(0.2361,0,0,0.2321,22.625,6.375)"
             r="64"
             cy="0"
             cx="0"
             gradientUnits="userSpaceOnUse"
             id="gradient4">
            <stop
               id="stop110"
               stop-color="#f2f2f2"
               offset="0" />
            <stop
               id="stop112"
               stop-color="#bca184"
               offset="1" />
            <stop
               id="stop114"
               stop-color="#7d7a7a"
               offset="0.6742" />
          </radialGradient>
          <path
             id="path117"
             d="m 26,2 c -4,0 -8,4 -8,8 0,4 4,8 8,8 4,0 8,-4 8,-8 0,-4 -4,-8 -8,-8 z"
             style="fill:url(#gradient4)" />
          <linearGradient
             y2="-45.970001"
             x2="75.839996"
             y1="-52.610001"
             x1="54.23"
             gradientUnits="userSpaceOnUse"
             id="gradient5">
            <stop
               id="stop119"
               stop-color="#c85805"
               offset="0" />
            <stop
               id="stop121"
               stop-color="#f06306"
               offset="1" />
          </linearGradient>
          <path
             id="path124"
             d="m 20,58 h 2 V 44 l -2,-1 z"
             style="fill:url(#gradient5)" />
        </g>
      </g>
    </g>
  </g>
</svg>
